<svg width="32" height="32" viewBox="0 0 32 32" fill="none" xmlns="http://www.w3.org/2000/svg">
<path d="M27.6216 4.37828C27.3503 4.10698 26.9092 4.10698 26.6379 4.37828L16.8988 14.1174C16.6275 14.3887 16.6275 14.8298 16.8988 15.1011C17.0352 15.236 17.2132 15.3042 17.3913 15.3042C17.5694 15.3042 17.7475 15.2361 17.8825 15.1011L27.6216 5.36196C27.8929 5.09065 27.8929 4.64959 27.6216 4.37828Z" fill="#9EA0A5"/>
<path d="M27.1332 4.17389C26.7492 4.17389 26.4375 4.48556 26.4375 4.86956V13.2174C26.4375 13.6014 26.7492 13.9131 27.1332 13.9131C27.5172 13.9131 27.8288 13.6014 27.8288 13.2174V4.86956C27.8288 4.48556 27.5172 4.17389 27.1332 4.17389Z" fill="#9EA0A5"/>
<path d="M27.1333 4.17389H18.7855C18.4015 4.17389 18.0898 4.48556 18.0898 4.86956C18.0898 5.25356 18.4015 5.56517 18.7855 5.56517H27.1333C27.5173 5.56517 27.829 5.2535 27.829 4.8695C27.829 4.4855 27.5173 4.17389 27.1333 4.17389Z" fill="#9EA0A5"/>
<path d="M15.102 16.8999C14.8307 16.6286 14.3897 16.6286 14.1184 16.8999L4.37926 26.639C4.10796 26.9103 4.10796 27.3514 4.37926 27.6227C4.51563 27.7576 4.69367 27.8258 4.87178 27.8258C5.04989 27.8258 5.22793 27.7577 5.36293 27.6227L15.102 17.8836C15.3733 17.6123 15.3733 17.1712 15.102 16.8999Z" fill="#9EA0A5"/>
<path d="M4.8695 18.0869C4.4855 18.0869 4.17383 18.3985 4.17383 18.7825V27.1304C4.17383 27.5144 4.4855 27.826 4.8695 27.826C5.2535 27.826 5.56511 27.5144 5.56511 27.1304V18.7825C5.56511 18.3985 5.2535 18.0869 4.8695 18.0869Z" fill="#9EA0A5"/>
<path d="M13.2173 26.4346H4.8695C4.4855 26.4346 4.17383 26.7463 4.17383 27.1303C4.17383 27.5143 4.4855 27.826 4.8695 27.826H13.2173C13.6013 27.826 13.913 27.5143 13.913 27.1303C13.9129 26.7463 13.6013 26.4346 13.2173 26.4346Z" fill="#9EA0A5"/>
<path d="M29.913 0H2.08696C0.936325 0 0 0.936325 0 2.08696V29.913C0 31.0637 0.936325 32 2.08696 32H29.913C31.0637 32 32 31.0637 32 29.913V2.08696C32 0.936325 31.0636 0 29.913 0ZM30.6087 29.913C30.6087 30.2957 30.2956 30.6087 29.913 30.6087H2.08696C1.70432 30.6087 1.39128 30.2957 1.39128 29.913V2.08696C1.39128 1.70432 1.70432 1.39128 2.08696 1.39128H29.913C30.2957 1.39128 30.6087 1.70432 30.6087 2.08696V29.913H30.6087Z" fill="#9EA0A5"/>
</svg>
